<svg id="SvgjsSvg1392" width="991" height="624" xmlns="http://www.w3.org/2000/svg" version="1.1" xmlns:xlink="http://www.w3.org/1999/xlink" xmlns:svgjs="http://svgjs.com/svgjs"><defs id="SvgjsDefs1393"><marker id="SvgjsMarker1443" markerWidth="16" markerHeight="12" refX="16" refY="6" viewBox="0 0 16 12" orient="auto" markerUnits="userSpaceOnUse"><path id="SvgjsPath1444" d="M0,2 L14,6 L0,11 L0,2" fill="#323232" stroke="#323232" stroke-width="2"></path></marker></defs><g id="SvgjsG1394" transform="translate(25,132)"><path id="SvgjsPath1395" d="M 0 0L 181 0L 181 45L 0 45Z" stroke="none" fill-opacity="1" fill="#ffff99"></path><g id="SvgjsG1396"><text id="SvgjsText1397" font-family="微软雅黑" text-anchor="middle" font-size="16px" width="80" fill="#323232" font-weight="700" align="middle" anchor="middle" family="微软雅黑" size="16px" weight="700" font-style="" y="10.1" transform="rotate(0)"><tspan id="SvgjsTspan1398" dy="20" x="90.5"><tspan id="SvgjsTspan1399" style="text-decoration:;">用户浏览器</tspan></tspan></text></g></g><g id="SvgjsG1400" transform="translate(286,132)"><path id="SvgjsPath1401" d="M 0 0L 181 0L 181 45L 0 45Z" stroke="none" fill-opacity="1" fill="#b266ff"></path><g id="SvgjsG1402"><text id="SvgjsText1403" font-family="微软雅黑" text-anchor="middle" font-size="16px" width="80" fill="#323232" font-weight="700" align="middle" anchor="middle" family="微软雅黑" size="16px" weight="700" font-style="" y="10.1" transform="rotate(0)"><tspan id="SvgjsTspan1404" dy="20" x="90.5"><tspan id="SvgjsTspan1405" style="text-decoration:;">有道云笔记</tspan></tspan></text></g></g><g id="SvgjsG1406" transform="translate(545,132)"><path id="SvgjsPath1407" d="M 0 0L 181 0L 181 45L 0 45Z" stroke="none" fill-opacity="1" fill="#ff8000"></path><g id="SvgjsG1408"><text id="SvgjsText1409" font-family="微软雅黑" text-anchor="middle" font-size="16px" width="105" fill="#323232" font-weight="700" align="middle" anchor="middle" family="微软雅黑" size="16px" weight="700" font-style="" y="10.1" transform="rotate(0)"><tspan id="SvgjsTspan1410" dy="20" x="90.5"><tspan id="SvgjsTspan1411" style="text-decoration:;"> QQ授权服务器</tspan></tspan></text></g></g><g id="SvgjsG1412" transform="translate(785,132)"><path id="SvgjsPath1413" d="M 0 0L 181 0L 181 45L 0 45Z" stroke="none" fill-opacity="1" fill="#ffff99"></path><g id="SvgjsG1414"><text id="SvgjsText1415" font-family="微软雅黑" text-anchor="middle" font-size="16px" width="105" fill="#323232" font-weight="700" align="middle" anchor="middle" family="微软雅黑" size="16px" weight="700" font-style="" y="10.1" transform="rotate(0)"><tspan id="SvgjsTspan1416" dy="20" x="90.5"><tspan id="SvgjsTspan1417" style="text-decoration:;">QQ资源服务器</tspan></tspan></text></g></g><g id="SvgjsG1418" transform="matrix(6.123233995736766e-17,1,-1,6.123233995736766e-17,899,24.999999999999993)"><path id="SvgjsPath1419" d="M 98 0Q 89 0 89 9L 89 124Q 89 133 76 133Q 89 133 89 142L 89 257Q 89 266 98 266" stroke="#323232" stroke-width="2" fill="none"></path><path id="SvgjsPath1420" d="M 0 0L 98 0L 98 266L 0 266Z" stroke="none" fill="none"></path><g id="SvgjsG1421"><text id="SvgjsText1422" font-family="微软雅黑" text-anchor="end" font-size="13px" width="0" fill="#323232" font-weight="400" align="middle" anchor="end" family="微软雅黑" size="13px" weight="400" font-style="" y="123.05" transform="rotate(0)"></text></g></g><g id="SvgjsG1423" transform="translate(686,68)"><path id="SvgjsPath1424" d="M 0 0L 160 0L 160 40L 0 40Z" stroke="none" fill="none"></path><g id="SvgjsG1425"><text id="SvgjsText1426" font-family="微软雅黑" text-anchor="middle" font-size="18px" width="90" fill="#323232" font-weight="700" align="middle" anchor="middle" family="微软雅黑" size="18px" weight="700" font-style="" y="5.800000000000001" transform="rotate(0)"><tspan id="SvgjsTspan1427" dy="22" x="80"><tspan id="SvgjsTspan1428" style="text-decoration:;">服务提供商</tspan></tspan></text></g></g><g id="SvgjsG1429" transform="translate(296.5,87)"><path id="SvgjsPath1430" d="M 0 0L 160 0L 160 40L 0 40Z" stroke="none" fill="none"></path><g id="SvgjsG1431"><text id="SvgjsText1432" font-family="微软雅黑" text-anchor="middle" font-size="18px" width="54" fill="#323232" font-weight="700" align="middle" anchor="middle" family="微软雅黑" size="18px" weight="700" font-style="" y="5.800000000000001" transform="rotate(0)"><tspan id="SvgjsTspan1433" dy="22" x="80"><tspan id="SvgjsTspan1434" style="text-decoration:;">客户端</tspan></tspan></text></g></g><g id="SvgjsG1435" transform="translate(35,68)"><path id="SvgjsPath1436" d="M 0 4Q 0 0 4 0L 151 0Q 155 0 155 4L 155 25Q 155 29 151 29L 4 29Q 0 29 0 25Z" stroke="#323232" stroke-width="2" fill-opacity="1" fill="#99ff99"></path><g id="SvgjsG1437"><text id="SvgjsText1438" font-family="微软雅黑" text-anchor="middle" font-size="16px" width="32" fill="#323232" font-weight="700" align="middle" anchor="middle" family="微软雅黑" size="16px" weight="700" font-style="" y="2.1" transform="rotate(0)"><tspan id="SvgjsTspan1439" dy="20" x="77.5"><tspan id="SvgjsTspan1440" style="text-decoration:;">用户</tspan></tspan></text></g></g><g id="SvgjsG1441"><path id="SvgjsPath1442" d="M112.5 97L112.5 110.5L112.5 110.5L112.5 124" stroke="#323232" stroke-width="2" fill="none" marker-end="url(#SvgjsMarker1443)"></path></g><g id="SvgjsG1445"><path id="SvgjsPath1446" d="M115.5 177L115.5 237L116 237" stroke-dasharray="8,5" stroke="#323232" stroke-width="2" fill="none"></path></g><g id="SvgjsG1447"><path id="SvgjsPath1448" d="M383.5 179L383.5 386.5L383.5 386.5L383.5 594" stroke-dasharray="8,5" stroke="#323232" stroke-width="2" fill="none"></path></g><g id="SvgjsG1449"><path id="SvgjsPath1450" d="M637.5 180L637.5 387.5L637.5 387.5L637.5 595" stroke-dasharray="8,5" stroke="#323232" stroke-width="2" fill="none"></path></g><g id="SvgjsG1451"><path id="SvgjsPath1452" d="M894.5 181L894.5 388.5L894.5 388.5L894.5 596" stroke-dasharray="8,5" stroke="#323232" stroke-width="2" fill="none"></path></g><g id="SvgjsG1453"><path id="SvgjsPath1454" d="M116 236L115.5 236L115.5 591" stroke-dasharray="8,5" stroke="#323232" stroke-width="2" fill="none"></path></g><g id="SvgjsG1455" transform="translate(118.5,214)"><path id="SvgjsPath1456" d="M 0 7.260000000000001L 240.5 7.260000000000001L 240.5 0L 251.5 11L 240.5 22L 240.5 14.74L 0 14.74L 0 7.260000000000001Z" stroke="#323232" stroke-width="2" fill-opacity="1" fill="#e6ffcc"></path><g id="SvgjsG1457"><text id="SvgjsText1458" font-family="微软雅黑" text-anchor="middle" font-size="13px" width="0" fill="#99ffff" font-weight="400" align="middle" anchor="middle" family="微软雅黑" size="13px" weight="400" font-style="" y="1.050000000000001" transform="rotate(0)"></text></g></g><g id="SvgjsG1459" transform="translate(159,180)"><path id="SvgjsPath1460" d="M 0 0L 160 0L 160 40L 0 40Z" stroke="none" fill="none"></path><g id="SvgjsG1461"><text id="SvgjsText1462" font-family="微软雅黑" text-anchor="middle" font-size="16px" width="112" fill="#323232" font-weight="400" align="middle" anchor="middle" family="微软雅黑" size="16px" weight="400" font-style="" y="7.6" transform="rotate(0)"><tspan id="SvgjsTspan1463" dy="20" x="80"><tspan id="SvgjsTspan1464" style="text-decoration:;">用户打开客户端</tspan></tspan></text></g></g><g id="SvgjsG1465" transform="translate(397,242)"><path id="SvgjsPath1466" d="M 0 6.6000000000000005L 223 6.6000000000000005L 223 0L 233 10L 223 20L 223 13.4L 0 13.4L 0 6.6000000000000005Z" stroke="#323232" stroke-width="2" fill-opacity="1" fill="#e6ffcc"></path><g id="SvgjsG1467"><text id="SvgjsText1468" font-family="微软雅黑" text-anchor="middle" font-size="13px" width="0" fill="#99ffff" font-weight="400" align="middle" anchor="middle" family="微软雅黑" size="13px" weight="400" font-style="" y="0.05000000000000093" transform="rotate(0)"></text></g></g><g id="SvgjsG1469" transform="translate(408,202)"><path id="SvgjsPath1470" d="M 0 0L 160 0L 160 40L 0 40Z" stroke="none" fill="none"></path><g id="SvgjsG1471"><text id="SvgjsText1472" font-family="微软雅黑" text-anchor="middle" font-size="16px" width="112" fill="#323232" font-weight="400" align="middle" anchor="middle" family="微软雅黑" size="16px" weight="400" font-style="" y="-2.4" transform="rotate(0)"><tspan id="SvgjsTspan1473" dy="20" x="80"><tspan id="SvgjsTspan1474" style="text-decoration:;">客户端要求用户</tspan></tspan><tspan id="SvgjsTspan1475" dy="20" x="80"><tspan id="SvgjsTspan1476" style="text-decoration:;">给予授权</tspan></tspan></text></g></g><g id="SvgjsG1477" transform="translate(635,236)"><path id="SvgjsPath1478" d="M 0 0L 20 0L 20 59L 0 59Z" stroke="none" fill-opacity="1" fill="#33ffff"></path><g id="SvgjsG1479"><text id="SvgjsText1480" font-family="微软雅黑" text-anchor="middle" font-size="13px" width="0" fill="#323232" font-weight="400" align="middle" anchor="middle" family="微软雅黑" size="13px" weight="400" font-style="" y="19.55" transform="rotate(0)"></text></g></g><g id="SvgjsG1481" transform="matrix(-1,1.2246467991473532e-16,-1.2246467991473532e-16,-1,631,295)"><path id="SvgjsPath1482" d="M 0 6.6000000000000005L 228 6.6000000000000005L 228 0L 238 10L 228 20L 228 13.4L 0 13.4L 0 6.6000000000000005Z" stroke="#323232" stroke-width="2" fill-opacity="1" fill="#e6ffcc"></path><g id="SvgjsG1483"><text id="SvgjsText1484" font-family="微软雅黑" text-anchor="middle" font-size="13px" width="0" fill="#99ffff" font-weight="400" align="middle" anchor="middle" family="微软雅黑" size="13px" weight="400" font-style="" y="0.05000000000000093" transform="rotate(0)"></text></g></g><g id="SvgjsG1485" transform="translate(418,251)"><path id="SvgjsPath1486" d="M 0 0L 160 0L 160 40L 0 40Z" stroke="none" fill="none"></path><g id="SvgjsG1487"><text id="SvgjsText1488" font-family="微软雅黑" text-anchor="middle" font-size="16px" width="96" fill="#323232" font-weight="400" align="middle" anchor="middle" family="微软雅黑" size="16px" weight="400" font-style="" y="7.6" transform="rotate(0)"><tspan id="SvgjsTspan1489" dy="20" x="80"><tspan id="SvgjsTspan1490" style="text-decoration:;">返回鉴权页面</tspan></tspan></text></g></g><g id="SvgjsG1491" transform="matrix(-1,1.2246467991473532e-16,-1.2246467991473532e-16,-1,370,332)"><path id="SvgjsPath1492" d="M 0 6.6000000000000005L 242.99999999999997 6.6000000000000005L 242.99999999999997 0L 252.99999999999997 10L 242.99999999999997 20L 242.99999999999997 13.4L 0 13.4L 0 6.6000000000000005Z" stroke="#323232" stroke-width="2" fill-opacity="1" fill="#e6ffcc"></path><g id="SvgjsG1493"><text id="SvgjsText1494" font-family="微软雅黑" text-anchor="middle" font-size="13px" width="0" fill="#99ffff" font-weight="400" align="middle" anchor="middle" family="微软雅黑" size="13px" weight="400" font-style="" y="0.05000000000000093" transform="rotate(0)"></text></g></g><g id="SvgjsG1495" transform="translate(156,279)"><path id="SvgjsPath1496" d="M 0 0L 160 0L 160 40L 0 40Z" stroke="none" fill="none"></path><g id="SvgjsG1497"><text id="SvgjsText1498" font-family="微软雅黑" text-anchor="middle" font-size="16px" width="96" fill="#323232" font-weight="400" align="middle" anchor="middle" family="微软雅黑" size="16px" weight="400" font-style="" y="7.6" transform="rotate(0)"><tspan id="SvgjsTspan1499" dy="20" x="80"><tspan id="SvgjsTspan1500" style="text-decoration:;">返回鉴权页面</tspan></tspan></text></g></g><g id="SvgjsG1501" transform="translate(118.5,390)"><path id="SvgjsPath1502" d="M 0 6.6000000000000005L 249 6.6000000000000005L 249 0L 259 10L 249 20L 249 13.4L 0 13.4L 0 6.6000000000000005Z" stroke="#323232" stroke-width="2" fill-opacity="1" fill="#e6ffcc"></path><g id="SvgjsG1503"><text id="SvgjsText1504" font-family="微软雅黑" text-anchor="middle" font-size="13px" width="0" fill="#99ffff" font-weight="400" align="middle" anchor="middle" family="微软雅黑" size="13px" weight="400" font-style="" y="0.05000000000000093" transform="rotate(0)"></text></g></g><g id="SvgjsG1505" transform="translate(156,357)"><path id="SvgjsPath1506" d="M 0 0L 160 0L 160 40L 0 40Z" stroke="none" fill="none"></path><g id="SvgjsG1507"><text id="SvgjsText1508" font-family="微软雅黑" text-anchor="middle" font-size="16px" width="160" fill="#323232" font-weight="400" align="middle" anchor="middle" family="微软雅黑" size="16px" weight="400" font-style="" y="7.6" transform="rotate(0)"><tspan id="SvgjsTspan1509" dy="20" x="80"><tspan id="SvgjsTspan1510" style="text-decoration:;">用户同意给客户端授权</tspan></tspan></text></g></g><g id="SvgjsG1511" transform="translate(635.5,408)"><path id="SvgjsPath1512" d="M 0 0L 19 0L 19 77L 0 77Z" stroke="none" fill-opacity="1" fill="#33ffff"></path><g id="SvgjsG1513"><text id="SvgjsText1514" font-family="微软雅黑" text-anchor="middle" font-size="13px" width="0" fill="#323232" font-weight="400" align="middle" anchor="middle" family="微软雅黑" size="13px" weight="400" font-style="" y="28.55" transform="rotate(0)"></text></g></g><g id="SvgjsG1515" transform="translate(395,415)"><path id="SvgjsPath1516" d="M 0 6.6000000000000005L 227 6.6000000000000005L 227 0L 237 10L 227 20L 227 13.4L 0 13.4L 0 6.6000000000000005Z" stroke="#323232" stroke-width="2" fill-opacity="1" fill="#e6ffcc"></path><g id="SvgjsG1517"><text id="SvgjsText1518" font-family="微软雅黑" text-anchor="middle" font-size="13px" width="0" fill="#99ffff" font-weight="400" align="middle" anchor="middle" family="微软雅黑" size="13px" weight="400" font-style="" y="0.05000000000000093" transform="rotate(0)"></text></g></g><g id="SvgjsG1519" transform="translate(430,380)"><path id="SvgjsPath1520" d="M 0 0L 160 0L 160 40L 0 40Z" stroke="none" fill="none"></path><g id="SvgjsG1521"><text id="SvgjsText1522" font-family="微软雅黑" text-anchor="middle" font-size="16px" width="160" fill="#ff0000" font-weight="400" align="middle" anchor="middle" family="微软雅黑" size="16px" weight="400" font-style="" y="-2.4" transform="rotate(0)"><tspan id="SvgjsTspan1523" dy="20" x="80"><tspan id="SvgjsTspan1524" style="text-decoration:;">客户端向认证服务器申</tspan></tspan><tspan id="SvgjsTspan1525" dy="20" x="80"><tspan id="SvgjsTspan1526" style="text-decoration:;">请令牌Token</tspan></tspan></text></g></g><g id="SvgjsG1527" transform="matrix(-1,1.2246467991473532e-16,-1.2246467991473532e-16,-1,632,485)"><path id="SvgjsPath1528" d="M 0 6.6000000000000005L 234 6.6000000000000005L 234 0L 244 10L 234 20L 234 13.4L 0 13.4L 0 6.6000000000000005Z" stroke="#323232" stroke-width="2" fill-opacity="1" fill="#e6ffcc"></path><g id="SvgjsG1529"><text id="SvgjsText1530" font-family="微软雅黑" text-anchor="middle" font-size="13px" width="0" fill="#99ffff" font-weight="400" align="middle" anchor="middle" family="微软雅黑" size="13px" weight="400" font-style="" y="0.05000000000000093" transform="rotate(0)"></text></g></g><g id="SvgjsG1531" transform="translate(428,431)"><path id="SvgjsPath1532" d="M 0 0L 160 0L 160 40L 0 40Z" stroke="none" fill="none"></path><g id="SvgjsG1533"><text id="SvgjsText1534" font-family="微软雅黑" text-anchor="middle" font-size="16px" width="160" fill="#323232" font-weight="400" align="middle" anchor="middle" family="微软雅黑" size="16px" weight="400" font-style="" y="-2.4" transform="rotate(0)"><tspan id="SvgjsTspan1535" dy="20" x="80"><tspan id="SvgjsTspan1536" style="text-decoration:;">认证服务器认证成功，</tspan></tspan><tspan id="SvgjsTspan1537" dy="20" x="80"><tspan id="SvgjsTspan1538" style="text-decoration:;">发放令牌给客户端</tspan></tspan></text></g></g><g id="SvgjsG1539" transform="translate(373,220)"><path id="SvgjsPath1540" d="M 0 0L 20 0L 20 115L 0 115Z" stroke="none" fill-opacity="1" fill="#33ffff"></path><g id="SvgjsG1541"><text id="SvgjsText1542" font-family="微软雅黑" text-anchor="middle" font-size="13px" width="0" fill="#323232" font-weight="400" align="middle" anchor="middle" family="微软雅黑" size="13px" weight="400" font-style="" y="47.55" transform="rotate(0)"></text></g></g><g id="SvgjsG1543" transform="translate(393,510)"><path id="SvgjsPath1544" d="M 0 7.260000000000001L 481 7.260000000000001L 481 0L 492 11L 481 22L 481 14.74L 0 14.74L 0 7.260000000000001Z" stroke="#323232" stroke-width="2" fill-opacity="1" fill="#e6ffcc"></path><g id="SvgjsG1545"><text id="SvgjsText1546" font-family="微软雅黑" text-anchor="middle" font-size="13px" width="0" fill="#99ffff" font-weight="400" align="middle" anchor="middle" family="微软雅黑" size="13px" weight="400" font-style="" y="1.050000000000001" transform="rotate(0)"></text></g></g><g id="SvgjsG1547" transform="translate(436,482)"><path id="SvgjsPath1548" d="M 0 0L 305 0L 305 39L 0 39Z" stroke="none" fill="none"></path><g id="SvgjsG1549"><text id="SvgjsText1550" font-family="微软雅黑" text-anchor="middle" font-size="16px" width="270" fill="#ff0000" font-weight="400" align="middle" anchor="middle" family="微软雅黑" size="16px" weight="400" font-style="" y="7.1" transform="rotate(0)"><tspan id="SvgjsTspan1551" dy="20" x="152.5"><tspan id="SvgjsTspan1552" style="text-decoration:;">使用令牌Token向资源服务器获取资源</tspan></tspan></text></g></g><g id="SvgjsG1553" transform="matrix(-1,1.2246467991473532e-16,-1.2246467991473532e-16,-1,885,572)"><path id="SvgjsPath1554" d="M 0 7.260000000000001L 481 7.260000000000001L 481 0L 492 11L 481 22L 481 14.74L 0 14.74L 0 7.260000000000001Z" stroke="#323232" stroke-width="2" fill-opacity="1" fill="#e6ffcc"></path><g id="SvgjsG1555"><text id="SvgjsText1556" font-family="微软雅黑" text-anchor="middle" font-size="13px" width="0" fill="#99ffff" font-weight="400" align="middle" anchor="middle" family="微软雅黑" size="13px" weight="400" font-style="" y="1.050000000000001" transform="rotate(0)"></text></g></g><g id="SvgjsG1557" transform="translate(436,525)"><path id="SvgjsPath1558" d="M 0 0L 344 0L 344 36L 0 36Z" stroke="none" fill="none"></path><g id="SvgjsG1559"><text id="SvgjsText1560" font-family="微软雅黑" text-anchor="middle" font-size="16px" width="334" fill="#ff0000" font-weight="400" align="middle" anchor="middle" family="微软雅黑" size="16px" weight="400" font-style="" y="5.6" transform="rotate(0)"><tspan id="SvgjsTspan1561" dy="20" x="172"><tspan id="SvgjsTspan1562" style="text-decoration:;">资源服务器确认Token无误，向客户端发放资源</tspan></tspan></text></g></g><g id="SvgjsG1563" transform="matrix(-1,1.2246467991473532e-16,-1.2246467991473532e-16,-1,370,592)"><path id="SvgjsPath1564" d="M 0 6.6000000000000005L 242.99999999999997 6.6000000000000005L 242.99999999999997 0L 252.99999999999997 10L 242.99999999999997 20L 242.99999999999997 13.4L 0 13.4L 0 6.6000000000000005Z" stroke="#323232" stroke-width="2" fill-opacity="1" fill="#e6ffcc"></path><g id="SvgjsG1565"><text id="SvgjsText1566" font-family="微软雅黑" text-anchor="middle" font-size="13px" width="0" fill="#99ffff" font-weight="400" align="middle" anchor="middle" family="微软雅黑" size="13px" weight="400" font-style="" y="0.05000000000000093" transform="rotate(0)"></text></g></g><g id="SvgjsG1567" transform="translate(151,545)"><path id="SvgjsPath1568" d="M 0 0L 160 0L 160 40L 0 40Z" stroke="none" fill="none"></path><g id="SvgjsG1569"><text id="SvgjsText1570" font-family="微软雅黑" text-anchor="middle" font-size="16px" width="64" fill="#323232" font-weight="400" align="middle" anchor="middle" family="微软雅黑" size="16px" weight="400" font-style="" y="7.6" transform="rotate(0)"><tspan id="SvgjsTspan1571" dy="20" x="80"><tspan id="SvgjsTspan1572" style="text-decoration:;">返回资源</tspan></tspan></text></g></g><g id="SvgjsG1573" transform="translate(370,516)"><path id="SvgjsPath1574" d="M 0 0L 18 0L 18 83L 0 83Z" stroke="none" fill-opacity="1" fill="#33ffff"></path><g id="SvgjsG1575"><text id="SvgjsText1576" font-family="微软雅黑" text-anchor="middle" font-size="13px" width="0" fill="#323232" font-weight="400" align="middle" anchor="middle" family="微软雅黑" size="13px" weight="400" font-style="" y="31.55" transform="rotate(0)"></text></g></g><g id="SvgjsG1577" transform="translate(375,388)"><path id="SvgjsPath1578" d="M 0 0L 18 0L 18 83L 0 83Z" stroke="none" fill-opacity="1" fill="#33ffff"></path><g id="SvgjsG1579"><text id="SvgjsText1580" font-family="微软雅黑" text-anchor="middle" font-size="13px" width="0" fill="#323232" font-weight="400" align="middle" anchor="middle" family="微软雅黑" size="13px" weight="400" font-style="" y="31.55" transform="rotate(0)"></text></g></g></svg>