<svg id="SvgjsSvg1006" width="1011" height="1128" xmlns="http://www.w3.org/2000/svg" version="1.1" xmlns:xlink="http://www.w3.org/1999/xlink" xmlns:svgjs="http://svgjs.com/svgjs"><defs id="SvgjsDefs1007"><marker id="SvgjsMarker1034" markerWidth="16" markerHeight="12" refX="16" refY="6" viewBox="0 0 16 12" orient="auto" markerUnits="userSpaceOnUse"><path id="SvgjsPath1035" d="M0,2 L14,6 L0,11 L0,2" fill="#323232" stroke="#323232" stroke-width="2"></path></marker><marker id="SvgjsMarker1038" markerWidth="16" markerHeight="12" refX="16" refY="6" viewBox="0 0 16 12" orient="auto" markerUnits="userSpaceOnUse"><path id="SvgjsPath1039" d="M0,2 L14,6 L0,11 L0,2" fill="#323232" stroke="#323232" stroke-width="2"></path></marker><marker id="SvgjsMarker1042" markerWidth="16" markerHeight="12" refX="16" refY="6" viewBox="0 0 16 12" orient="auto" markerUnits="userSpaceOnUse"><path id="SvgjsPath1043" d="M0,2 L14,6 L0,11 L0,2" fill="#323232" stroke="#323232" stroke-width="2"></path></marker><marker id="SvgjsMarker1046" markerWidth="16" markerHeight="12" refX="16" refY="6" viewBox="0 0 16 12" orient="auto" markerUnits="userSpaceOnUse"><path id="SvgjsPath1047" d="M0,2 L14,6 L0,11 L0,2" fill="#323232" stroke="#323232" stroke-width="2"></path></marker><marker id="SvgjsMarker1155" markerWidth="16" markerHeight="12" refX="16" refY="6" viewBox="0 0 16 12" orient="auto" markerUnits="userSpaceOnUse"><path id="SvgjsPath1156" d="M0,2 L14,6 L0,11 L0,2" fill="#323232" stroke="#323232" stroke-width="2"></path></marker><marker id="SvgjsMarker1159" markerWidth="16" markerHeight="12" refX="16" refY="6" viewBox="0 0 16 12" orient="auto" markerUnits="userSpaceOnUse"><path id="SvgjsPath1160" d="M0,2 L14,6 L0,11 L0,2" fill="#323232" stroke="#323232" stroke-width="2"></path></marker><marker id="SvgjsMarker1163" markerWidth="16" markerHeight="12" refX="16" refY="6" viewBox="0 0 16 12" orient="auto" markerUnits="userSpaceOnUse"><path id="SvgjsPath1164" d="M0,2 L14,6 L0,11 L0,2" fill="#323232" stroke="#323232" stroke-width="2"></path></marker><marker id="SvgjsMarker1167" markerWidth="16" markerHeight="12" refX="16" refY="6" viewBox="0 0 16 12" orient="auto" markerUnits="userSpaceOnUse"><path id="SvgjsPath1168" d="M0,2 L14,6 L0,11 L0,2" fill="#323232" stroke="#323232" stroke-width="2"></path></marker><marker id="SvgjsMarker1171" markerWidth="16" markerHeight="12" refX="16" refY="6" viewBox="0 0 16 12" orient="auto" markerUnits="userSpaceOnUse"><path id="SvgjsPath1172" d="M0,2 L14,6 L0,11 L0,2" fill="#323232" stroke="#323232" stroke-width="2"></path></marker><marker id="SvgjsMarker1175" markerWidth="16" markerHeight="12" refX="16" refY="6" viewBox="0 0 16 12" orient="auto" markerUnits="userSpaceOnUse"><path id="SvgjsPath1176" d="M0,2 L14,6 L0,11 L0,2" fill="#323232" stroke="#323232" stroke-width="2"></path></marker><marker id="SvgjsMarker1225" markerWidth="16" markerHeight="12" refX="16" refY="6" viewBox="0 0 16 12" orient="auto" markerUnits="userSpaceOnUse"><path id="SvgjsPath1226" d="M0,2 L14,6 L0,11 L0,2" fill="#323232" stroke="#323232" stroke-width="2"></path></marker><marker id="SvgjsMarker1229" markerWidth="16" markerHeight="12" refX="16" refY="6" viewBox="0 0 16 12" orient="auto" markerUnits="userSpaceOnUse"><path id="SvgjsPath1230" d="M0,2 L14,6 L0,11 L0,2" fill="#323232" stroke="#323232" stroke-width="2"></path></marker><marker id="SvgjsMarker1239" markerWidth="16" markerHeight="12" refX="16" refY="6" viewBox="0 0 16 12" orient="auto" markerUnits="userSpaceOnUse"><path id="SvgjsPath1240" d="M0,2 L14,6 L0,11 L0,2" fill="#323232" stroke="#323232" stroke-width="2"></path></marker><marker id="SvgjsMarker1269" markerWidth="16" markerHeight="12" refX="16" refY="6" viewBox="0 0 16 12" orient="auto" markerUnits="userSpaceOnUse"><path id="SvgjsPath1270" d="M0,2 L14,6 L0,11 L0,2" fill="#323232" stroke="#323232" stroke-width="2"></path></marker><marker id="SvgjsMarker1279" markerWidth="16" markerHeight="12" refX="16" refY="6" viewBox="0 0 16 12" orient="auto" markerUnits="userSpaceOnUse"><path id="SvgjsPath1280" d="M0,2 L14,6 L0,11 L0,2" fill="#323232" stroke="#323232" stroke-width="2"></path></marker></defs><g id="SvgjsG1008" transform="translate(40,173)"><path id="SvgjsPath1009" d="M 0 4Q 0 0 4 0L 133 0Q 137 0 137 4L 137 48Q 137 52 133 52L 4 52Q 0 52 0 48Z" stroke="#323232" stroke-width="2" fill-opacity="1" fill="#33ffff"></path><g id="SvgjsG1010"><text id="SvgjsText1011" font-family="微软雅黑" text-anchor="middle" font-size="18px" width="90" fill="#323232" font-weight="700" align="middle" anchor="middle" family="微软雅黑" size="18px" weight="700" font-style="" y="11.8" transform="rotate(0)"><tspan id="SvgjsTspan1012" dy="22" x="68.5"><tspan id="SvgjsTspan1013" style="text-decoration:;">资源服务器</tspan></tspan></text></g></g><g id="SvgjsG1014" transform="translate(319,173)"><path id="SvgjsPath1015" d="M 0 4Q 0 0 4 0L 133 0Q 137 0 137 4L 137 48Q 137 52 133 52L 4 52Q 0 52 0 48Z" stroke="#323232" stroke-width="2" fill-opacity="1" fill="#ff8000"></path><g id="SvgjsG1016"><text id="SvgjsText1017" font-family="微软雅黑" text-anchor="middle" font-size="18px" width="72" fill="#323232" font-weight="700" align="middle" anchor="middle" family="微软雅黑" size="18px" weight="700" font-style="" y="11.8" transform="rotate(0)"><tspan id="SvgjsTspan1018" dy="22" x="68.5"><tspan id="SvgjsTspan1019" style="text-decoration:;">应用页面</tspan></tspan></text></g></g><g id="SvgjsG1020" transform="translate(644,173)"><path id="SvgjsPath1021" d="M 0 4Q 0 0 4 0L 133 0Q 137 0 137 4L 137 48Q 137 52 133 52L 4 52Q 0 52 0 48Z" stroke="#323232" stroke-width="2" fill-opacity="1" fill="#33ff33"></path><g id="SvgjsG1022"><text id="SvgjsText1023" font-family="微软雅黑" text-anchor="middle" font-size="18px" width="90" fill="#323232" font-weight="700" align="middle" anchor="middle" family="微软雅黑" size="18px" weight="700" font-style="" y="11.8" transform="rotate(0)"><tspan id="SvgjsTspan1024" dy="22" x="68.5"><tspan id="SvgjsTspan1025" style="text-decoration:;">认证服务器</tspan></tspan></text></g></g><g id="SvgjsG1026" transform="translate(319,25)"><path id="SvgjsPath1027" d="M 0 4Q 0 0 4 0L 133 0Q 137 0 137 4L 137 48Q 137 52 133 52L 4 52Q 0 52 0 48Z" stroke="#323232" stroke-width="2" fill-opacity="1" fill="#ff6666"></path><g id="SvgjsG1028"><text id="SvgjsText1029" font-family="微软雅黑" text-anchor="middle" font-size="18px" width="36" fill="#323232" font-weight="700" align="middle" anchor="middle" family="微软雅黑" size="18px" weight="700" font-style="" y="11.8" transform="rotate(0)"><tspan id="SvgjsTspan1030" dy="22" x="68.5"><tspan id="SvgjsTspan1031" style="text-decoration:;">用户</tspan></tspan></text></g></g><g id="SvgjsG1032"><path id="SvgjsPath1033" d="M387.5 77L387.5 125L387.5 125L387.5 173" stroke="#323232" stroke-width="2" fill="none" marker-end="url(#SvgjsMarker1034)"></path></g><g id="SvgjsG1036"><path id="SvgjsPath1037" d="M456 51L712.5 51L712.5 173" stroke="#323232" stroke-width="2" fill="none" marker-end="url(#SvgjsMarker1038)"></path></g><g id="SvgjsG1040"><path id="SvgjsPath1041" d="M456 199L550 199L550 199L644 199" stroke="#323232" stroke-width="2" fill="none" marker-end="url(#SvgjsMarker1042)"></path></g><g id="SvgjsG1044"><path id="SvgjsPath1045" d="M319 199L248 199L248 199L177 199" stroke="#323232" stroke-width="2" fill="none" marker-end="url(#SvgjsMarker1046)"></path></g><g id="SvgjsG1048" transform="matrix(-1,1.2246467991473532e-16,-1.2246467991473532e-16,-1,719.0000122118247,263.00000013721166)"><path id="SvgjsPath1049" d="M 0 12.607189996290913Q 0 0 12.607189996290913 0L 299.84466547725253 0Q 312.45185547354345 0 312.45185547354345 12.607189996290913L 312.45185547354345 25.214379992581826L 332.45185547354345 25.214379992581826L 308.5121085997025 31.517974990727282L 284.57236172586164 25.214379992581826L 304.57236172586164 25.214379992581826L 304.57236172586164 12.607189996290913Q 304.57236172586164 7.8794937476818205 274.57236172586164 7.8794937476818205L 37.87949374768182 7.8794937476818205Q 7.8794937476818205 7.8794937476818205 7.8794937476818205 12.607189996290913L 7.8794937476818205 31.517974990727282L 0 31.517974990727282L 0 12.607189996290913Z" stroke="#323232" stroke-width="2" fill-opacity="1" fill="#ffff66"></path><path id="SvgjsPath1050" d="M 0 0L 332.45185547354345 0L 332.45185547354345 31.517974990727282L 0 31.517974990727282Z" stroke="none" fill="none"></path><g id="SvgjsG1051"><text id="SvgjsText1052" font-family="微软雅黑" text-anchor="middle" font-size="13px" width="0" fill="#323232" font-weight="400" align="middle" anchor="middle" family="微软雅黑" size="13px" weight="400" font-style="" y="5.808987495363641" transform="rotate(0)"></text></g></g><g id="SvgjsG1053" transform="translate(394,105)"><path id="SvgjsPath1054" d="M 0 0L 179 0L 179 30L 0 30Z" stroke="none" fill="none"></path><g id="SvgjsG1055"><text id="SvgjsText1056" font-family="微软雅黑" text-anchor="start" font-size="15px" width="178" fill="#ff3333" font-weight="700" align="middle" anchor="start" family="微软雅黑" size="15px" weight="700" font-style="" y="-6.25" transform="rotate(0)"><tspan id="SvgjsTspan1057" dy="18" x="0"><tspan id="SvgjsTspan1058" style="text-decoration:;">(1) 用户访问：</tspan></tspan><tspan id="SvgjsTspan1059" dy="18" x="0"><tspan id="SvgjsTspan1060" style="text-decoration:;">https://note.youdao.com</tspan></tspan></text></g></g><g id="SvgjsG1061" transform="translate(468,169)"><path id="SvgjsPath1062" d="M 0 0L 149 0L 149 26L 0 26Z" stroke="none" fill="none"></path><g id="SvgjsG1063"><text id="SvgjsText1064" font-family="微软雅黑" text-anchor="start" font-size="15px" width="144" fill="#ff3333" font-weight="700" align="middle" anchor="start" family="微软雅黑" size="15px" weight="700" font-style="" y="1.25" transform="rotate(0)"><tspan id="SvgjsTspan1065" dy="18" x="0"><tspan id="SvgjsTspan1066" style="text-decoration:;">(2) 重定向到授权页面</tspan></tspan></text></g></g><g id="SvgjsG1067" transform="translate(719,101)"><path id="SvgjsPath1068" d="M 0 0L 89 0L 89 26L 0 26Z" stroke="none" fill="none"></path><g id="SvgjsG1069"><text id="SvgjsText1070" font-family="微软雅黑" text-anchor="start" font-size="15px" width="84" fill="#ff3333" font-weight="700" align="middle" anchor="start" family="微软雅黑" size="15px" weight="700" font-style="" y="1.25" transform="rotate(0)"><tspan id="SvgjsTspan1071" dy="18" x="0"><tspan id="SvgjsTspan1072" style="text-decoration:;">(3) 用户授权</tspan></tspan></text></g></g><g id="SvgjsG1073" transform="translate(435,267)"><path id="SvgjsPath1074" d="M 0 0L 302 0L 302 32L 0 32Z" stroke="none" fill="none"></path><g id="SvgjsG1075"><text id="SvgjsText1076" font-family="微软雅黑" text-anchor="start" font-size="15px" width="276" fill="#ff3333" font-weight="700" align="middle" anchor="start" family="微软雅黑" size="15px" weight="700" font-style="" y="-5.25" transform="rotate(0)"><tspan id="SvgjsTspan1077" dy="18" x="0"><tspan id="SvgjsTspan1078" style="text-decoration:;">(4) 重定向到https: //note.youdao.com?</tspan></tspan><tspan id="SvgjsTspan1079" dy="18" x="0"><tspan id="SvgjsTspan1080" style="text-decoration:;">access_token=123</tspan></tspan></text></g></g><g id="SvgjsG1081" transform="translate(183,169)"><path id="SvgjsPath1082" d="M 0 0L 136 0L 136 30L 0 30Z" stroke="none" fill="none"></path><g id="SvgjsG1083"><text id="SvgjsText1084" font-family="微软雅黑" text-anchor="start" font-size="15px" width="129" fill="#ff3333" font-weight="700" align="middle" anchor="start" family="微软雅黑" size="15px" weight="700" font-style="" y="3.25" transform="rotate(0)"><tspan id="SvgjsTspan1085" dy="18" x="0"><tspan id="SvgjsTspan1086" style="text-decoration:;">(5) 访问资源服务器</tspan></tspan></text></g></g><g id="SvgjsG1087" transform="translate(46,537)"><path id="SvgjsPath1088" d="M 0 4Q 0 0 4 0L 133 0Q 137 0 137 4L 137 48Q 137 52 133 52L 4 52Q 0 52 0 48Z" stroke="#323232" stroke-width="2" fill-opacity="1" fill="#33ffff"></path><g id="SvgjsG1089"><text id="SvgjsText1090" font-family="微软雅黑" text-anchor="middle" font-size="18px" width="72" fill="#323232" font-weight="700" align="middle" anchor="middle" family="微软雅黑" size="18px" weight="700" font-style="" y="11.8" transform="rotate(0)"><tspan id="SvgjsTspan1091" dy="22" x="68.5"><tspan id="SvgjsTspan1092" style="text-decoration:;">应用页面</tspan></tspan></text></g></g><g id="SvgjsG1093" transform="translate(349,659)"><path id="SvgjsPath1094" d="M 0 4Q 0 0 4 0L 133 0Q 137 0 137 4L 137 48Q 137 52 133 52L 4 52Q 0 52 0 48Z" stroke="#323232" stroke-width="2" fill-opacity="1" fill="#ff8000"></path><g id="SvgjsG1095"><text id="SvgjsText1096" font-family="微软雅黑" text-anchor="middle" font-size="18px" width="90" fill="#323232" font-weight="700" align="middle" anchor="middle" family="微软雅黑" size="18px" weight="700" font-style="" y="11.8" transform="rotate(0)"><tspan id="SvgjsTspan1097" dy="22" x="68.5"><tspan id="SvgjsTspan1098" style="text-decoration:;">应用服务器</tspan></tspan></text></g></g><g id="SvgjsG1099" transform="translate(349,537)"><path id="SvgjsPath1100" d="M 0 4Q 0 0 4 0L 133 0Q 137 0 137 4L 137 48Q 137 52 133 52L 4 52Q 0 52 0 48Z" stroke="#323232" stroke-width="2" fill-opacity="1" fill="#33ff33"></path><g id="SvgjsG1101"><text id="SvgjsText1102" font-family="微软雅黑" text-anchor="middle" font-size="18px" width="90" fill="#323232" font-weight="700" align="middle" anchor="middle" family="微软雅黑" size="18px" weight="700" font-style="" y="11.8" transform="rotate(0)"><tspan id="SvgjsTspan1103" dy="22" x="68.5"><tspan id="SvgjsTspan1104" style="text-decoration:;">认证服务器</tspan></tspan></text></g></g><g id="SvgjsG1105" transform="translate(46,384)"><path id="SvgjsPath1106" d="M 0 4Q 0 0 4 0L 133 0Q 137 0 137 4L 137 48Q 137 52 133 52L 4 52Q 0 52 0 48Z" stroke="#323232" stroke-width="2" fill-opacity="1" fill="#ff6666"></path><g id="SvgjsG1107"><text id="SvgjsText1108" font-family="微软雅黑" text-anchor="middle" font-size="18px" width="36" fill="#323232" font-weight="700" align="middle" anchor="middle" family="微软雅黑" size="18px" weight="700" font-style="" y="11.8" transform="rotate(0)"><tspan id="SvgjsTspan1109" dy="22" x="68.5"><tspan id="SvgjsTspan1110" style="text-decoration:;">用户</tspan></tspan></text></g></g><g id="SvgjsG1111" transform="translate(25,467)"><path id="SvgjsPath1112" d="M 0 0L 179 0L 179 30L 0 30Z" stroke="none" fill="none"></path><g id="SvgjsG1113"><text id="SvgjsText1114" font-family="微软雅黑" text-anchor="start" font-size="15px" width="178" fill="#ff3333" font-weight="700" align="middle" anchor="start" family="微软雅黑" size="15px" weight="700" font-style="" y="-6.25" transform="rotate(0)"><tspan id="SvgjsTspan1115" dy="18" x="0"><tspan id="SvgjsTspan1116" style="text-decoration:;">(1) 用户访问：</tspan></tspan><tspan id="SvgjsTspan1117" dy="18" x="0"><tspan id="SvgjsTspan1118" style="text-decoration:;">https://note.youdao.com</tspan></tspan></text></g></g><g id="SvgjsG1119" transform="translate(187,537)"><path id="SvgjsPath1120" d="M 0 0L 149 0L 149 26L 0 26Z" stroke="none" fill="none"></path><g id="SvgjsG1121"><text id="SvgjsText1122" font-family="微软雅黑" text-anchor="start" font-size="15px" width="144" fill="#ff3333" font-weight="700" align="middle" anchor="start" family="微软雅黑" size="15px" weight="700" font-style="" y="1.25" transform="rotate(0)"><tspan id="SvgjsTspan1123" dy="18" x="0"><tspan id="SvgjsTspan1124" style="text-decoration:;">(2) 重定向到授权页面</tspan></tspan></text></g></g><g id="SvgjsG1125" transform="translate(266,384)"><path id="SvgjsPath1126" d="M 0 0L 89 0L 89 26L 0 26Z" stroke="none" fill="none"></path><g id="SvgjsG1127"><text id="SvgjsText1128" font-family="微软雅黑" text-anchor="start" font-size="15px" width="84" fill="#ff3333" font-weight="700" align="middle" anchor="start" family="微软雅黑" size="15px" weight="700" font-style="" y="1.25" transform="rotate(0)"><tspan id="SvgjsTspan1129" dy="18" x="0"><tspan id="SvgjsTspan1130" style="text-decoration:;">(3) 用户授权</tspan></tspan></text></g></g><g id="SvgjsG1131" transform="translate(336,616)"><path id="SvgjsPath1132" d="M 0 0L 302 0L 302 32L 0 32Z" stroke="none" fill="none"></path><g id="SvgjsG1133"><text id="SvgjsText1134" font-family="微软雅黑" text-anchor="start" font-size="15px" width="276" fill="#ff3333" font-weight="700" align="middle" anchor="start" family="微软雅黑" size="15px" weight="700" font-style="" y="-5.25" transform="rotate(0)"><tspan id="SvgjsTspan1135" dy="18" x="0"><tspan id="SvgjsTspan1136" style="text-decoration:;">(4) 重定向到https: //note.youdao.com?</tspan></tspan><tspan id="SvgjsTspan1137" dy="18" x="0"><tspan id="SvgjsTspan1138" style="text-decoration:;">receive_token?code=</tspan></tspan></text></g></g><g id="SvgjsG1139" transform="translate(510,516)"><path id="SvgjsPath1140" d="M 0 0L 209 0L 209 44L 0 44Z" stroke="none" fill="none"></path><g id="SvgjsG1141"><text id="SvgjsText1142" font-family="微软雅黑" text-anchor="start" font-size="15px" width="201" fill="#ff3333" font-weight="700" align="middle" anchor="start" family="微软雅黑" size="15px" weight="700" font-style="" y="0.75" transform="rotate(0)"><tspan id="SvgjsTspan1143" dy="18" x="0"><tspan id="SvgjsTspan1144" style="text-decoration:;">(5) 用code换取access_token</tspan></tspan><tspan id="SvgjsTspan1145" dy="18" x="0"><tspan id="SvgjsTspan1146" style="text-decoration:;">和refresh_token</tspan></tspan></text></g></g><g id="SvgjsG1147" transform="translate(50,659)"><path id="SvgjsPath1148" d="M 0 4Q 0 0 4 0L 133 0Q 137 0 137 4L 137 48Q 137 52 133 52L 4 52Q 0 52 0 48Z" stroke="#323232" stroke-width="2" fill-opacity="1" fill="#8a8a8a"></path><g id="SvgjsG1149"><text id="SvgjsText1150" font-family="微软雅黑" text-anchor="middle" font-size="18px" width="90" fill="#ffffff" font-weight="700" align="middle" anchor="middle" family="微软雅黑" size="18px" weight="700" font-style="" y="11.8" transform="rotate(0)"><tspan id="SvgjsTspan1151" dy="22" x="68.5"><tspan id="SvgjsTspan1152" style="text-decoration:;">资源服务器</tspan></tspan></text></g></g><g id="SvgjsG1153"><path id="SvgjsPath1154" d="M114.5 436L114.5 486.5L114.5 486.5L114.5 537" stroke="#323232" stroke-width="2" fill="none" marker-end="url(#SvgjsMarker1155)"></path></g><g id="SvgjsG1157"><path id="SvgjsPath1158" d="M183 563L266 563L266 563L349 563" stroke="#323232" stroke-width="2" fill="none" marker-end="url(#SvgjsMarker1159)"></path></g><g id="SvgjsG1161"><path id="SvgjsPath1162" d="M183 410L417.5 410L417.5 537" stroke="#323232" stroke-width="2" fill="none" marker-end="url(#SvgjsMarker1163)"></path></g><g id="SvgjsG1165"><path id="SvgjsPath1166" d="M417.5 589L417.5 624L417.5 624L417.5 659" stroke="#323232" stroke-width="2" fill="none" marker-end="url(#SvgjsMarker1167)"></path></g><g id="SvgjsG1169"><path id="SvgjsPath1170" d="M486 685L655 685L655 563L486 563" stroke="#323232" stroke-width="2" fill="none" marker-end="url(#SvgjsMarker1171)"></path></g><g id="SvgjsG1173"><path id="SvgjsPath1174" d="M349 685L268 685L268 685L187 685" stroke="#323232" stroke-width="2" fill="none" marker-end="url(#SvgjsMarker1175)"></path></g><g id="SvgjsG1177" transform="translate(220,655)"><path id="SvgjsPath1178" d="M 0 0L 89 0L 89 26L 0 26Z" stroke="none" fill="none"></path><g id="SvgjsG1179"><text id="SvgjsText1180" font-family="微软雅黑" text-anchor="start" font-size="15px" width="84" fill="#ff3333" font-weight="700" align="middle" anchor="start" family="微软雅黑" size="15px" weight="700" font-style="" y="1.25" transform="rotate(0)"><tspan id="SvgjsTspan1181" dy="18" x="0"><tspan id="SvgjsTspan1182" style="text-decoration:;">(6) 访问资源</tspan></tspan></text></g></g><g id="SvgjsG1183" transform="translate(46,927)"><path id="SvgjsPath1184" d="M 0 4Q 0 0 4 0L 133 0Q 137 0 137 4L 137 48Q 137 52 133 52L 4 52Q 0 52 0 48Z" stroke="#323232" stroke-width="2" fill-opacity="1" fill="#33ffff"></path><g id="SvgjsG1185"><text id="SvgjsText1186" font-family="微软雅黑" text-anchor="middle" font-size="18px" width="72" fill="#323232" font-weight="700" align="middle" anchor="middle" family="微软雅黑" size="18px" weight="700" font-style="" y="11.8" transform="rotate(0)"><tspan id="SvgjsTspan1187" dy="22" x="68.5"><tspan id="SvgjsTspan1188" style="text-decoration:;">应用页面</tspan></tspan></text></g></g><g id="SvgjsG1189" transform="translate(349,927)"><path id="SvgjsPath1190" d="M 0 4Q 0 0 4 0L 133 0Q 137 0 137 4L 137 48Q 137 52 133 52L 4 52Q 0 52 0 48Z" stroke="#323232" stroke-width="2" fill-opacity="1" fill="#33ff33"></path><g id="SvgjsG1191"><text id="SvgjsText1192" font-family="微软雅黑" text-anchor="middle" font-size="18px" width="90" fill="#323232" font-weight="700" align="middle" anchor="middle" family="微软雅黑" size="18px" weight="700" font-style="" y="11.8" transform="rotate(0)"><tspan id="SvgjsTspan1193" dy="22" x="68.5"><tspan id="SvgjsTspan1194" style="text-decoration:;">认证服务器</tspan></tspan></text></g></g><g id="SvgjsG1195" transform="translate(46,774)"><path id="SvgjsPath1196" d="M 0 4Q 0 0 4 0L 133 0Q 137 0 137 4L 137 48Q 137 52 133 52L 4 52Q 0 52 0 48Z" stroke="#323232" stroke-width="2" fill-opacity="1" fill="#ff6666"></path><g id="SvgjsG1197"><text id="SvgjsText1198" font-family="微软雅黑" text-anchor="middle" font-size="18px" width="36" fill="#323232" font-weight="700" align="middle" anchor="middle" family="微软雅黑" size="18px" weight="700" font-style="" y="11.8" transform="rotate(0)"><tspan id="SvgjsTspan1199" dy="22" x="68.5"><tspan id="SvgjsTspan1200" style="text-decoration:;">用户</tspan></tspan></text></g></g><g id="SvgjsG1201" transform="translate(25,857)"><path id="SvgjsPath1202" d="M 0 0L 179 0L 179 30L 0 30Z" stroke="none" fill="none"></path><g id="SvgjsG1203"><text id="SvgjsText1204" font-family="微软雅黑" text-anchor="start" font-size="15px" width="105" fill="#ff3333" font-weight="700" align="middle" anchor="start" family="微软雅黑" size="15px" weight="700" font-style="" y="-6.25" transform="rotate(0)"><tspan id="SvgjsTspan1205" dy="18" x="0"><tspan id="SvgjsTspan1206" style="text-decoration:;">(1) 用户访问：</tspan></tspan><tspan id="SvgjsTspan1207" dy="18" x="0"><tspan id="SvgjsTspan1208" style="text-decoration:;">同个企业的产品</tspan></tspan></text></g></g><g id="SvgjsG1209" transform="translate(197,927)"><path id="SvgjsPath1210" d="M 0 0L 122 0L 122 45L 0 45Z" stroke="none" fill="none"></path><g id="SvgjsG1211"><text id="SvgjsText1212" font-family="微软雅黑" text-anchor="start" font-size="15px" width="114" fill="#ff3333" font-weight="700" align="middle" anchor="start" family="微软雅黑" size="15px" weight="700" font-style="" y="1.25" transform="rotate(0)"><tspan id="SvgjsTspan1213" dy="18" x="0"><tspan id="SvgjsTspan1214" style="text-decoration:;">(2) 用账号和密码</tspan></tspan><tspan id="SvgjsTspan1215" dy="18" x="0"><tspan id="SvgjsTspan1216" style="text-decoration:;">换取token</tspan></tspan></text></g></g><g id="SvgjsG1217" transform="translate(349,1051)"><path id="SvgjsPath1218" d="M 0 4Q 0 0 4 0L 133 0Q 137 0 137 4L 137 48Q 137 52 133 52L 4 52Q 0 52 0 48Z" stroke="#323232" stroke-width="2" fill-opacity="1" fill="#8a8a8a"></path><g id="SvgjsG1219"><text id="SvgjsText1220" font-family="微软雅黑" text-anchor="middle" font-size="18px" width="90" fill="#ffffff" font-weight="700" align="middle" anchor="middle" family="微软雅黑" size="18px" weight="700" font-style="" y="11.8" transform="rotate(0)"><tspan id="SvgjsTspan1221" dy="22" x="68.5"><tspan id="SvgjsTspan1222" style="text-decoration:;">资源服务器</tspan></tspan></text></g></g><g id="SvgjsG1223"><path id="SvgjsPath1224" d="M114.5 826L114.5 876.5L114.5 876.5L114.5 927" stroke="#323232" stroke-width="2" fill="none" marker-end="url(#SvgjsMarker1225)"></path></g><g id="SvgjsG1227"><path id="SvgjsPath1228" d="M183 953L266 953L266 953L349 953" stroke="#323232" stroke-width="2" fill="none" marker-end="url(#SvgjsMarker1229)"></path></g><g id="SvgjsG1231" transform="translate(177,1045)"><path id="SvgjsPath1232" d="M 0 0L 135 0L 135 26L 0 26Z" stroke="none" fill="none"></path><g id="SvgjsG1233"><text id="SvgjsText1234" font-family="微软雅黑" text-anchor="start" font-size="15px" width="129" fill="#ff3333" font-weight="700" align="middle" anchor="start" family="微软雅黑" size="15px" weight="700" font-style="" y="1.25" transform="rotate(0)"><tspan id="SvgjsTspan1235" dy="18" x="0"><tspan id="SvgjsTspan1236" style="text-decoration:;">(3) 访问资源服务器</tspan></tspan></text></g></g><g id="SvgjsG1237"><path id="SvgjsPath1238" d="M114.5 979L114.5 1077L349 1077" stroke="#323232" stroke-width="2" fill="none" marker-end="url(#SvgjsMarker1239)"></path></g><g id="SvgjsG1241" transform="translate(546,927)"><path id="SvgjsPath1242" d="M 0 4Q 0 0 4 0L 133 0Q 137 0 137 4L 137 48Q 137 52 133 52L 4 52Q 0 52 0 48Z" stroke="#323232" stroke-width="2" fill-opacity="1" fill="#33ffff"></path><g id="SvgjsG1243"><text id="SvgjsText1244" font-family="微软雅黑" text-anchor="middle" font-size="18px" width="72" fill="#323232" font-weight="700" align="middle" anchor="middle" family="微软雅黑" size="18px" weight="700" font-style="" y="11.8" transform="rotate(0)"><tspan id="SvgjsTspan1245" dy="22" x="68.5"><tspan id="SvgjsTspan1246" style="text-decoration:;">应用页面</tspan></tspan></text></g></g><g id="SvgjsG1247" transform="translate(849,927)"><path id="SvgjsPath1248" d="M 0 4Q 0 0 4 0L 133 0Q 137 0 137 4L 137 48Q 137 52 133 52L 4 52Q 0 52 0 48Z" stroke="#323232" stroke-width="2" fill-opacity="1" fill="#33ff33"></path><g id="SvgjsG1249"><text id="SvgjsText1250" font-family="微软雅黑" text-anchor="middle" font-size="18px" width="90" fill="#323232" font-weight="700" align="middle" anchor="middle" family="微软雅黑" size="18px" weight="700" font-style="" y="11.8" transform="rotate(0)"><tspan id="SvgjsTspan1251" dy="22" x="68.5"><tspan id="SvgjsTspan1252" style="text-decoration:;">认证服务器</tspan></tspan></text></g></g><g id="SvgjsG1253" transform="translate(696,927)"><path id="SvgjsPath1254" d="M 0 0L 122 0L 122 45L 0 45Z" stroke="none" fill="none"></path><g id="SvgjsG1255"><text id="SvgjsText1256" font-family="微软雅黑" text-anchor="start" font-size="15px" width="96" fill="#ff3333" font-weight="700" align="middle" anchor="start" family="微软雅黑" size="15px" weight="700" font-style="" y="1.25" transform="rotate(0)"><tspan id="SvgjsTspan1257" dy="18" x="0"><tspan id="SvgjsTspan1258" style="text-decoration:;">(1) 验证身份并</tspan></tspan><tspan id="SvgjsTspan1259" dy="18" x="0"><tspan id="SvgjsTspan1260" style="text-decoration:;">换取token</tspan></tspan></text></g></g><g id="SvgjsG1261" transform="translate(849,1051)"><path id="SvgjsPath1262" d="M 0 4Q 0 0 4 0L 133 0Q 137 0 137 4L 137 48Q 137 52 133 52L 4 52Q 0 52 0 48Z" stroke="#323232" stroke-width="2" fill-opacity="1" fill="#8a8a8a"></path><g id="SvgjsG1263"><text id="SvgjsText1264" font-family="微软雅黑" text-anchor="middle" font-size="18px" width="90" fill="#ffffff" font-weight="700" align="middle" anchor="middle" family="微软雅黑" size="18px" weight="700" font-style="" y="11.8" transform="rotate(0)"><tspan id="SvgjsTspan1265" dy="22" x="68.5"><tspan id="SvgjsTspan1266" style="text-decoration:;">资源服务器</tspan></tspan></text></g></g><g id="SvgjsG1267"><path id="SvgjsPath1268" d="M683 953L766 953L766 953L849 953" stroke="#323232" stroke-width="2" fill="none" marker-end="url(#SvgjsMarker1269)"></path></g><g id="SvgjsG1271" transform="translate(677,1045)"><path id="SvgjsPath1272" d="M 0 0L 135 0L 135 26L 0 26Z" stroke="none" fill="none"></path><g id="SvgjsG1273"><text id="SvgjsText1274" font-family="微软雅黑" text-anchor="start" font-size="15px" width="129" fill="#ff3333" font-weight="700" align="middle" anchor="start" family="微软雅黑" size="15px" weight="700" font-style="" y="1.25" transform="rotate(0)"><tspan id="SvgjsTspan1275" dy="18" x="0"><tspan id="SvgjsTspan1276" style="text-decoration:;">(2) 访问资源服务器</tspan></tspan></text></g></g><g id="SvgjsG1277"><path id="SvgjsPath1278" d="M614.5 979L614.5 1077L849 1077" stroke="#323232" stroke-width="2" fill="none" marker-end="url(#SvgjsMarker1279)"></path></g><g id="SvgjsG1281" transform="translate(551,842)"><path id="SvgjsPath1282" d="M 0 0L 111 0L 111 37L 0 37Z" stroke="#323232" stroke-width="2" fill-opacity="1" fill="#ffffff"></path><g id="SvgjsG1283"><text id="SvgjsText1284" font-family="微软雅黑" text-anchor="middle" font-size="16px" width="80" fill="#323232" font-weight="400" align="middle" anchor="middle" family="微软雅黑" size="16px" weight="400" font-style="" y="6.1" transform="rotate(0)"><tspan id="SvgjsTspan1285" dy="20" x="55.5"><tspan id="SvgjsTspan1286" style="text-decoration:;">客户端模式</tspan></tspan></text></g></g><g id="SvgjsG1287" transform="translate(50,727.5)"><path id="SvgjsPath1288" d="M 0 0L 111 0L 111 37L 0 37Z" stroke="#323232" stroke-width="2" fill-opacity="1" fill="#ffffff"></path><g id="SvgjsG1289"><text id="SvgjsText1290" font-family="微软雅黑" text-anchor="middle" font-size="16px" width="64" fill="#323232" font-weight="400" align="middle" anchor="middle" family="微软雅黑" size="16px" weight="400" font-style="" y="6.1" transform="rotate(0)"><tspan id="SvgjsTspan1291" dy="20" x="55.5"><tspan id="SvgjsTspan1292" style="text-decoration:;">密码模式</tspan></tspan></text></g></g><g id="SvgjsG1293" transform="translate(46,312.5)"><path id="SvgjsPath1294" d="M 0 0L 111 0L 111 37L 0 37Z" stroke="#323232" stroke-width="2" fill-opacity="1" fill="#ffffff"></path><g id="SvgjsG1295"><text id="SvgjsText1296" font-family="微软雅黑" text-anchor="middle" font-size="16px" width="80" fill="#323232" font-weight="400" align="middle" anchor="middle" family="微软雅黑" size="16px" weight="400" font-style="" y="6.1" transform="rotate(0)"><tspan id="SvgjsTspan1297" dy="20" x="55.5"><tspan id="SvgjsTspan1298" style="text-decoration:;">授权码模式</tspan></tspan></text></g></g><g id="SvgjsG1299" transform="translate(29,25)"><path id="SvgjsPath1300" d="M 0 0L 111 0L 111 37L 0 37Z" stroke="#323232" stroke-width="2" fill-opacity="1" fill="#ffffff"></path><g id="SvgjsG1301"><text id="SvgjsText1302" font-family="微软雅黑" text-anchor="middle" font-size="16px" width="64" fill="#323232" font-weight="400" align="middle" anchor="middle" family="微软雅黑" size="16px" weight="400" font-style="" y="6.1" transform="rotate(0)"><tspan id="SvgjsTspan1303" dy="20" x="55.5"><tspan id="SvgjsTspan1304" style="text-decoration:;">简化模式</tspan></tspan></text></g></g></svg>